<svg width="17" height="19" viewBox="0 0 17 19" fill="none" xmlns="http://www.w3.org/2000/svg">
<path d="M13.5 6C13.5 4.67392 12.9732 3.40215 12.0355 2.46447C11.0979 1.52678 9.82608 1 8.5 1C7.17392 1 5.90215 1.52678 4.96447 2.46447C4.02678 3.40215 3.5 4.67392 3.5 6C3.5 11.8333 1 13.5 1 13.5H16C16 13.5 13.5 11.8333 13.5 6Z" stroke="white" stroke-width="1.5" stroke-linecap="round" stroke-linejoin="round"/>
<path d="M9.94168 16.8335C9.79517 17.0861 9.58489 17.2957 9.33187 17.4414C9.07886 17.5872 8.792 17.6639 8.50002 17.6639C8.20803 17.6639 7.92117 17.5872 7.66816 17.4414C7.41515 17.2957 7.20486 17.0861 7.05835 16.8335" stroke="white" stroke-width="1.5" stroke-linecap="round" stroke-linejoin="round"/>
</svg>
