<svg width="21" height="21" viewBox="0 0 21 21" fill="none" xmlns="http://www.w3.org/2000/svg">
<path d="M10.6667 12.6665C12.0475 12.6665 13.1667 11.5472 13.1667 10.1665C13.1667 8.78579 12.0475 7.6665 10.6667 7.6665C9.28604 7.6665 8.16675 8.78579 8.16675 10.1665C8.16675 11.5472 9.28604 12.6665 10.6667 12.6665Z" stroke="white" stroke-width="1.5" stroke-linecap="round" stroke-linejoin="round"/>
<path d="M16.8333 12.6667C16.7224 12.918 16.6893 13.1968 16.7383 13.4672C16.7873 13.7375 16.9162 13.9869 17.1083 14.1833L17.1583 14.2333C17.3133 14.3881 17.4362 14.5719 17.5201 14.7743C17.604 14.9766 17.6471 15.1935 17.6471 15.4125C17.6471 15.6315 17.604 15.8484 17.5201 16.0507C17.4362 16.2531 17.3133 16.4369 17.1583 16.5917C17.0035 16.7466 16.8197 16.8696 16.6174 16.9534C16.4151 17.0373 16.1982 17.0805 15.9792 17.0805C15.7601 17.0805 15.5433 17.0373 15.3409 16.9534C15.1386 16.8696 14.9548 16.7466 14.8 16.5917L14.75 16.5417C14.5536 16.3496 14.3042 16.2207 14.0338 16.1717C13.7635 16.1226 13.4847 16.1557 13.2333 16.2667C12.9869 16.3723 12.7767 16.5477 12.6286 16.7713C12.4805 16.9949 12.4011 17.2568 12.4 17.525V17.6667C12.4 18.1087 12.2244 18.5326 11.9118 18.8452C11.5993 19.1577 11.1754 19.3333 10.7333 19.3333C10.2913 19.3333 9.86738 19.1577 9.55482 18.8452C9.24226 18.5326 9.06667 18.1087 9.06667 17.6667V17.5917C9.06021 17.3158 8.97093 17.0483 8.81042 16.8239C8.64992 16.5995 8.42561 16.4286 8.16667 16.3333C7.91532 16.2224 7.63651 16.1893 7.36618 16.2383C7.09585 16.2873 6.8464 16.4162 6.65 16.6083L6.6 16.6583C6.44521 16.8133 6.2614 16.9362 6.05907 17.0201C5.85674 17.104 5.63986 17.1471 5.42083 17.1471C5.20181 17.1471 4.98493 17.104 4.7826 17.0201C4.58027 16.9362 4.39645 16.8133 4.24167 16.6583C4.08671 16.5035 3.96377 16.3197 3.8799 16.1174C3.79603 15.9151 3.75286 15.6982 3.75286 15.4792C3.75286 15.2601 3.79603 15.0433 3.8799 14.8409C3.96377 14.6386 4.08671 14.4548 4.24167 14.3L4.29167 14.25C4.48378 14.0536 4.61265 13.8042 4.66167 13.5338C4.71069 13.2635 4.6776 12.9847 4.56667 12.7333C4.46103 12.4869 4.28563 12.2767 4.06205 12.1286C3.83848 11.9805 3.57649 11.9011 3.30833 11.9H3.16667C2.72464 11.9 2.30072 11.7244 1.98816 11.4118C1.67559 11.0993 1.5 10.6754 1.5 10.2333C1.5 9.7913 1.67559 9.36738 1.98816 9.05482C2.30072 8.74226 2.72464 8.56667 3.16667 8.56667H3.24167C3.5175 8.56021 3.785 8.47093 4.00942 8.31042C4.23383 8.14992 4.40476 7.92561 4.5 7.66667C4.61093 7.41532 4.64402 7.13651 4.595 6.86618C4.54599 6.59585 4.41711 6.3464 4.225 6.15L4.175 6.1C4.02004 5.94521 3.89711 5.7614 3.81323 5.55907C3.72936 5.35674 3.68619 5.13986 3.68619 4.92083C3.68619 4.70181 3.72936 4.48493 3.81323 4.2826C3.89711 4.08027 4.02004 3.89645 4.175 3.74167C4.32979 3.58671 4.5136 3.46377 4.71593 3.3799C4.91826 3.29603 5.13514 3.25286 5.35417 3.25286C5.57319 3.25286 5.79007 3.29603 5.9924 3.3799C6.19473 3.46377 6.37854 3.58671 6.53333 3.74167L6.58333 3.79167C6.77973 3.98378 7.02918 4.11265 7.29951 4.16167C7.56984 4.21069 7.84865 4.1776 8.1 4.06667H8.16667C8.41314 3.96103 8.62335 3.78563 8.77141 3.56205C8.91947 3.33848 8.99893 3.07649 9 2.80833V2.66667C9 2.22464 9.17559 1.80072 9.48815 1.48816C9.80072 1.17559 10.2246 1 10.6667 1C11.1087 1 11.5326 1.17559 11.8452 1.48816C12.1577 1.80072 12.3333 2.22464 12.3333 2.66667V2.74167C12.3344 3.00982 12.4139 3.27181 12.5619 3.49539C12.71 3.71896 12.9202 3.89436 13.1667 4C13.418 4.11093 13.6968 4.14402 13.9672 4.095C14.2375 4.04599 14.4869 3.91711 14.6833 3.725L14.7333 3.675C14.8881 3.52004 15.0719 3.39711 15.2743 3.31323C15.4766 3.22936 15.6935 3.18619 15.9125 3.18619C16.1315 3.18619 16.3484 3.22936 16.5507 3.31323C16.7531 3.39711 16.9369 3.52004 17.0917 3.675C17.2466 3.82979 17.3696 4.0136 17.4534 4.21593C17.5373 4.41826 17.5805 4.63514 17.5805 4.85417C17.5805 5.07319 17.5373 5.29007 17.4534 5.4924C17.3696 5.69473 17.2466 5.87854 17.0917 6.03333L17.0417 6.08333C16.8496 6.27973 16.7207 6.52918 16.6717 6.79951C16.6226 7.06984 16.6557 7.34865 16.7667 7.6V7.66667C16.8723 7.91314 17.0477 8.12335 17.2713 8.27141C17.4949 8.41947 17.7568 8.49893 18.025 8.5H18.1667C18.6087 8.5 19.0326 8.67559 19.3452 8.98815C19.6577 9.30072 19.8333 9.72464 19.8333 10.1667C19.8333 10.6087 19.6577 11.0326 19.3452 11.3452C19.0326 11.6577 18.6087 11.8333 18.1667 11.8333H18.0917C17.8235 11.8344 17.5615 11.9139 17.3379 12.0619C17.1144 12.21 16.939 12.4202 16.8333 12.6667V12.6667Z" stroke="white" stroke-width="1.5" stroke-linecap="round" stroke-linejoin="round"/>
</svg>
